<svg width="248" height="256" viewBox="0 0 248 256" fill="none" xmlns="http://www.w3.org/2000/svg">
<g opacity="0.4">
<circle cx="10" cy="10.4216" r="10" fill="#104B51"/>
<circle cx="48" cy="10.4216" r="10" fill="#104B51"/>
<circle cx="86" cy="10.4216" r="10" fill="#104B51"/>
<circle cx="124" cy="10.4216" r="10" fill="#104B51"/>
<circle cx="162" cy="10.4216" r="10" fill="#104B51"/>
<ellipse cx="199.5" cy="10.4216" rx="10.5" ry="10" fill="#104B51"/>
<ellipse cx="237.5" cy="10.4216" rx="10.5" ry="10" fill="#104B51"/>
<ellipse cx="10" cy="97.9216" rx="10" ry="10.5" fill="#104B51"/>
<ellipse cx="48" cy="97.9216" rx="10" ry="10.5" fill="#104B51"/>
<ellipse cx="86" cy="97.9216" rx="10" ry="10.5" fill="#104B51"/>
<ellipse cx="124" cy="97.9216" rx="10" ry="10.5" fill="#104B51"/>
<ellipse cx="162" cy="97.9216" rx="10" ry="10.5" fill="#104B51"/>
<circle cx="199.5" cy="97.9216" r="10.5" fill="#104B51"/>
<circle cx="237.5" cy="97.9216" r="10.5" fill="#104B51"/>
<ellipse cx="10" cy="185.922" rx="10" ry="10.5" fill="#104B51"/>
<ellipse cx="48" cy="185.922" rx="10" ry="10.5" fill="#104B51"/>
<ellipse cx="86" cy="185.922" rx="10" ry="10.5" fill="#104B51"/>
<ellipse cx="124" cy="185.922" rx="10" ry="10.5" fill="#104B51"/>
<ellipse cx="162" cy="185.922" rx="10" ry="10.5" fill="#104B51"/>
<circle cx="199.5" cy="185.922" r="10.5" fill="#104B51"/>
<circle cx="237.5" cy="185.922" r="10.5" fill="#104B51"/>
<ellipse cx="10" cy="39.9216" rx="10" ry="10.5" fill="#104B51"/>
<ellipse cx="48" cy="39.9216" rx="10" ry="10.5" fill="#104B51"/>
<ellipse cx="86" cy="39.9216" rx="10" ry="10.5" fill="#104B51"/>
<ellipse cx="124" cy="39.9216" rx="10" ry="10.5" fill="#104B51"/>
<ellipse cx="162" cy="39.9216" rx="10" ry="10.5" fill="#104B51"/>
<circle cx="199.5" cy="39.9216" r="10.5" fill="#104B51"/>
<circle cx="237.5" cy="39.9216" r="10.5" fill="#104B51"/>
<circle cx="10" cy="127.422" r="10" fill="#104B51"/>
<circle cx="48" cy="127.422" r="10" fill="#104B51"/>
<circle cx="86" cy="127.422" r="10" fill="#104B51"/>
<circle cx="124" cy="127.422" r="10" fill="#104B51"/>
<circle cx="162" cy="127.422" r="10" fill="#104B51"/>
<ellipse cx="199.5" cy="127.422" rx="10.5" ry="10" fill="#104B51"/>
<ellipse cx="237.5" cy="127.422" rx="10.5" ry="10" fill="#104B51"/>
<circle cx="10" cy="215.422" r="10" fill="#104B51"/>
<circle cx="48" cy="215.422" r="10" fill="#104B51"/>
<circle cx="86" cy="215.422" r="10" fill="#104B51"/>
<circle cx="124" cy="215.422" r="10" fill="#104B51"/>
<circle cx="162" cy="215.422" r="10" fill="#104B51"/>
<ellipse cx="199.5" cy="215.422" rx="10.5" ry="10" fill="#104B51"/>
<ellipse cx="237.5" cy="215.422" rx="10.5" ry="10" fill="#104B51"/>
<ellipse cx="10" cy="68.9216" rx="10" ry="10.5" fill="#104B51"/>
<ellipse cx="48" cy="68.9216" rx="10" ry="10.5" fill="#104B51"/>
<ellipse cx="86" cy="68.9216" rx="10" ry="10.5" fill="#104B51"/>
<ellipse cx="124" cy="68.9216" rx="10" ry="10.5" fill="#104B51"/>
<ellipse cx="162" cy="68.9216" rx="10" ry="10.5" fill="#104B51"/>
<circle cx="199.5" cy="68.9216" r="10.5" fill="#104B51"/>
<circle cx="237.5" cy="68.9216" r="10.5" fill="#104B51"/>
<ellipse cx="10" cy="156.922" rx="10" ry="10.5" fill="#104B51"/>
<ellipse cx="48" cy="156.922" rx="10" ry="10.5" fill="#104B51"/>
<ellipse cx="86" cy="156.922" rx="10" ry="10.5" fill="#104B51"/>
<ellipse cx="124" cy="156.922" rx="10" ry="10.5" fill="#104B51"/>
<ellipse cx="162" cy="156.922" rx="10" ry="10.5" fill="#104B51"/>
<circle cx="199.5" cy="156.922" r="10.5" fill="#104B51"/>
<circle cx="237.5" cy="156.922" r="10.5" fill="#104B51"/>
<ellipse cx="10" cy="244.922" rx="10" ry="10.5" fill="#104B51"/>
<ellipse cx="48" cy="244.922" rx="10" ry="10.5" fill="#104B51"/>
<ellipse cx="86" cy="244.922" rx="10" ry="10.5" fill="#104B51"/>
<ellipse cx="124" cy="244.922" rx="10" ry="10.5" fill="#104B51"/>
<ellipse cx="162" cy="244.922" rx="10" ry="10.5" fill="#104B51"/>
<circle cx="199.5" cy="244.922" r="10.5" fill="#104B51"/>
<circle cx="237.5" cy="244.922" r="10.5" fill="#104B51"/>
</g>
</svg>
