<svg width="28" height="33" viewBox="0 0 28 33" fill="none" xmlns="http://www.w3.org/2000/svg">
<path d="M22.8949 17.3959C22.8809 14.8154 24.048 12.8678 26.4105 11.4334C25.0887 9.54199 23.0918 8.50137 20.4551 8.29746C17.959 8.10059 15.2309 9.75293 14.2324 9.75293C13.1777 9.75293 10.759 8.36777 8.86055 8.36777C4.93711 8.43106 0.767578 11.4967 0.767578 17.7334C0.767578 19.5756 1.10508 21.4787 1.78008 23.4428C2.68008 26.0232 5.92852 32.3514 9.31758 32.2459C11.0895 32.2037 12.341 30.9873 14.6473 30.9873C16.8832 30.9873 18.0434 32.2459 20.0191 32.2459C23.4363 32.1967 26.3754 26.4451 27.2332 23.8576C22.6488 21.699 22.8949 17.5295 22.8949 17.3959ZM18.9152 5.85059C20.8348 3.57246 20.659 1.49824 20.6027 0.75293C18.9082 0.851367 16.9465 1.90605 15.8285 3.20684C14.598 4.59902 13.8738 6.32168 14.0285 8.2623C15.8637 8.40293 17.5371 7.46074 18.9152 5.85059Z" fill="#F89939"/>
</svg>
