<svg width="12" height="10" viewBox="0 0 12 10" fill="none" xmlns="http://www.w3.org/2000/svg">
<path d="M5.55593 2.24295C6.94925 2.24295 8.08225 3.36604 8.08225 4.74944C8.08225 5.07422 8.01779 5.38164 7.90127 5.66675L9.3764 7.12949C10.14 6.49729 10.74 5.68163 11.1094 4.74944C10.2342 2.55038 8.07729 0.990949 5.55097 0.990949C4.84439 0.990949 4.16757 1.11739 3.54032 1.34052L4.63118 2.42394C4.91877 2.30989 5.22867 2.24295 5.55593 2.24295ZM0.50576 0.876905L1.6586 2.01982L1.89164 2.25039C1.05119 2.89499 0.394196 3.75776 0 4.74944C0.872685 6.94851 3.0296 8.50794 5.55593 8.50794C6.33936 8.50794 7.0856 8.35671 7.76739 8.08647L7.9806 8.2972L9.4607 9.75994L10.1028 9.12278L1.1454 0.239746L0.50576 0.876905ZM3.29736 3.64619L4.08079 4.42219C4.056 4.52631 4.04113 4.63788 4.04113 4.74696C4.04113 5.5775 4.71795 6.24937 5.55593 6.24937C5.66749 6.24937 5.77906 6.2345 5.88318 6.2097L6.66662 6.9857C6.32944 7.15181 5.95508 7.25097 5.55593 7.25097C4.16261 7.25097 3.0296 6.12789 3.0296 4.74449C3.0296 4.35277 3.13125 3.98337 3.29736 3.64619ZM5.47411 3.25695L7.06577 4.83622L7.07569 4.75688C7.07569 3.92634 6.39886 3.25448 5.56089 3.25448L5.47411 3.25695Z" fill="#545454"/>
</svg>
