<svg width="12" height="10" viewBox="0 0 12 10" fill="none" xmlns="http://www.w3.org/2000/svg">
<path d="M5.55593 2.24308C6.94925 2.24308 8.08225 3.36616 8.08225 4.74957C8.08225 5.07434 8.01779 5.38177 7.90127 5.66688L9.3764 7.12961C10.14 6.49741 10.74 5.68175 11.1094 4.74957C10.2342 2.5505 8.07729 0.991071 5.55097 0.991071C4.84439 0.991071 4.16757 1.11751 3.54032 1.34064L4.63118 2.42406C4.91877 2.31002 5.22867 2.24308 5.55593 2.24308ZM0.50576 0.877028L1.6586 2.01995L1.89164 2.25051C1.05119 2.89511 0.394196 3.75788 0 4.74957C0.872685 6.94863 3.0296 8.50806 5.55593 8.50806C6.33936 8.50806 7.0856 8.35683 7.76739 8.08659L7.9806 8.29733L9.4607 9.76007L10.1028 9.12291L1.1454 0.239868L0.50576 0.877028ZM3.29736 3.64631L4.08079 4.42231C4.056 4.52644 4.04113 4.638 4.04113 4.74709C4.04113 5.57762 4.71795 6.24949 5.55593 6.24949C5.66749 6.24949 5.77906 6.23462 5.88318 6.20983L6.66662 6.98582C6.32944 7.15193 5.95508 7.2511 5.55593 7.2511C4.16261 7.2511 3.0296 6.12801 3.0296 4.74461C3.0296 4.35289 3.13125 3.98349 3.29736 3.64631ZM5.47411 3.25708L7.06577 4.83634L7.07569 4.757C7.07569 3.92647 6.39886 3.2546 5.56089 3.2546L5.47411 3.25708Z" fill="#545454"/>
</svg>
