<svg width="28" height="33" viewBox="0 0 28 33" fill="none" xmlns="http://www.w3.org/2000/svg">
<path d="M22.8949 17.3958C22.8809 14.8154 24.048 12.8677 26.4105 11.4333C25.0887 9.54193 23.0918 8.50131 20.4551 8.2974C17.959 8.10053 15.2309 9.75287 14.2324 9.75287C13.1777 9.75287 10.759 8.36771 8.86055 8.36771C4.93711 8.43099 0.767578 11.4966 0.767578 17.7333C0.767578 19.5755 1.10508 21.4786 1.78008 23.4427C2.68008 26.0232 5.92852 32.3513 9.31758 32.2458C11.0895 32.2037 12.341 30.9872 14.6473 30.9872C16.8832 30.9872 18.0434 32.2458 20.0191 32.2458C23.4363 32.1966 26.3754 26.4451 27.2332 23.8576C22.6488 21.699 22.8949 17.5294 22.8949 17.3958ZM18.9152 5.85052C20.8348 3.5724 20.659 1.49818 20.6027 0.752869C18.9082 0.851306 16.9465 1.90599 15.8285 3.20677C14.598 4.59896 13.8738 6.32162 14.0285 8.26224C15.8637 8.40287 17.5371 7.46068 18.9152 5.85052Z" fill="white"/>
</svg>
